<svg width="21" height="21" viewBox="0 0 21 21" fill="none" xmlns="http://www.w3.org/2000/svg">
<path d="M14.9337 8.51079C14.9337 8.43936 14.898 8.359 14.8444 8.30543L14.398 7.859C14.3444 7.80543 14.2641 7.76971 14.1927 7.76971C14.1212 7.76971 14.0409 7.80543 13.9873 7.859L10.4784 11.3679L6.96944 7.859C6.91587 7.80543 6.83551 7.76971 6.76408 7.76971C6.68372 7.76971 6.6123 7.80543 6.55872 7.859L6.1123 8.30543C6.05872 8.359 6.02301 8.43936 6.02301 8.51079C6.02301 8.58221 6.05872 8.66257 6.1123 8.71614L10.273 12.8769C10.3266 12.9304 10.4069 12.9661 10.4784 12.9661C10.5498 12.9661 10.6302 12.9304 10.6837 12.8769L14.8444 8.71614C14.898 8.66257 14.9337 8.58221 14.9337 8.51079Z" fill="black"/>
</svg>
