<svg width="21" height="21" viewBox="0 0 21 21" fill="none" xmlns="http://www.w3.org/2000/svg">
<path d="M14.9338 12.3485C14.9338 12.42 14.898 12.5003 14.8445 12.5539L14.398 13.0003C14.3445 13.0539 14.2641 13.0896 14.1927 13.0896C14.1213 13.0896 14.0409 13.0539 13.9873 13.0003L10.4784 9.49139L6.96947 13.0003C6.9159 13.0539 6.83554 13.0896 6.76411 13.0896C6.68376 13.0896 6.61233 13.0539 6.55876 13.0003L6.11233 12.5539C6.05876 12.5003 6.02304 12.42 6.02304 12.3485C6.02304 12.2771 6.05876 12.1967 6.11233 12.1432L10.273 7.98246C10.3266 7.92889 10.407 7.89317 10.4784 7.89317C10.5498 7.89317 10.6302 7.92889 10.6838 7.98246L14.8445 12.1432C14.898 12.1967 14.9338 12.2771 14.9338 12.3485Z" fill="white"/>
</svg>
