<svg width="21" height="20" viewBox="0 0 21 20" fill="none" xmlns="http://www.w3.org/2000/svg">
<path fill-rule="evenodd" clip-rule="evenodd" d="M3.7798 9.93066C3.7798 8.94661 3.863 8.32209 5.91807 6.80083C7.61946 5.54134 13.073 1.23739 13.073 1.23739V8.42206H17.2202V18.7626H5.07515C4.36272 18.7626 3.7796 18.1843 3.7796 17.4778L3.7798 9.93072V9.93066Z" fill="#3E9CDC"/>
<path fill-rule="evenodd" clip-rule="evenodd" d="M13.073 8.42197V12.585L5.45209 17.7335L15.0873 14.6246V8.42197H13.073Z" fill="black" fill-opacity="0.2"/>
<path fill-rule="evenodd" clip-rule="evenodd" d="M9.59037 8.20682C10.0361 7.6802 10.6869 7.49433 11.0443 7.79169C11.4017 8.08912 11.3303 8.75716 10.8846 9.28377C10.4392 9.81032 9.78808 9.99599 9.43069 9.69856C9.0733 9.4012 9.14494 8.7333 9.59037 8.20675V8.20682Z" fill="#231F20"/>
</svg>
